# 3ds Max Wavefront OBJ Exporter v0.97b - (c)2007 guruware
# File Created: 26.11.2019 02:47:13

mtllib nut_04_obj.mtl

#
# object Box002
#

v  -28.2954 -28.7487 12.2407
v  -28.2954 -28.7487 -6.2665
v  -9.3560 -28.7487 -6.2665
v  -9.3560 -28.7487 12.2407
v  9.5728 -28.7487 -6.2665
v  9.5728 -28.7487 12.2407
v  28.5227 -28.7487 -6.2665
v  28.5227 -28.7487 12.2407
v  -28.2954 31.3049 12.2407
v  -9.3560 31.3049 12.2407
v  -9.3560 31.3049 -6.2665
v  -28.2954 31.3049 -6.2665
v  9.5728 31.3049 12.2407
v  9.5728 31.3049 -6.2665
v  28.5227 31.3049 12.2407
v  28.5227 31.3049 -6.2665
v  -9.3560 -9.7880 12.2407
v  -28.2954 -9.7880 12.2407
v  9.5728 -9.7880 12.2407
v  28.5227 -9.7880 12.2407
v  -9.3560 9.4712 12.2407
v  -28.2954 9.4712 12.2407
v  28.5227 9.4712 12.2407
v  9.5728 9.4712 12.2407
v  28.5227 -9.7880 -6.2665
v  28.5227 9.4712 -6.2665
v  9.5728 -9.7880 -6.2665
v  -9.3560 -9.7880 -6.2665
v  -28.2954 -9.7880 -6.2665
v  9.5728 9.4712 -6.2665
v  -28.2954 9.4712 -6.2665
v  -9.3560 9.4712 -6.2665
# 32 vertices

vn 0.0000 -1.0000 -0.0000
vn 0.0000 1.0000 0.0000
vn 0.0000 0.0000 1.0000
vn 0.0000 -0.0000 1.0000
vn 1.0000 -0.0000 -0.0000
vn 1.0000 0.0000 -0.0000
vn 1.0000 0.0000 0.0000
vn 0.0000 0.0000 -1.0000
vn -1.0000 0.0000 -0.0000
# 9 vertex normals

vt 1.0000 0.0000 0.0000
vt 1.0000 1.0000 0.0000
vt 0.6667 1.0000 0.0000
vt 0.6667 0.0000 0.0000
vt 0.3333 1.0000 0.0000
vt 0.3333 0.0000 0.0000
vt -0.0000 1.0000 0.0000
vt -0.0000 0.0000 0.0000
vt 0.0000 0.0000 0.0000
vt 0.0000 1.0000 0.0000
vt 0.3333 0.3333 0.0000
vt 0.0000 0.3333 0.0000
vt 0.6667 0.3333 0.0000
vt 1.0000 0.3333 0.0000
vt 0.3333 0.6667 0.0000
vt 0.0000 0.6667 0.0000
vt 1.0000 0.6667 0.0000
vt 0.6667 0.6667 0.0000
# 18 texture coords

o Box002
g Box002
usemtl wire_057008136
s 2
f 1/1/1 2/2/1 3/3/1 
f 3/3/1 4/4/1 1/1/1 
f 4/4/1 3/3/1 5/5/1 
f 5/5/1 6/6/1 4/4/1 
f 6/6/1 5/5/1 7/7/1 
f 7/7/1 8/8/1 6/6/1 
s 4
f 9/9/2 10/6/2 11/5/2 
f 11/5/2 12/10/2 9/9/2 
f 10/6/2 13/4/2 14/3/2 
f 14/3/2 11/5/2 10/6/2 
f 13/4/2 15/1/2 16/2/2 
f 16/2/2 14/3/2 13/4/2 
s 8
f 1/9/3 4/6/3 17/11/3 
f 17/11/3 18/12/3 1/9/3 
f 4/6/3 6/4/3 19/13/3 
f 19/13/3 17/11/3 4/6/3 
f 6/4/3 8/1/3 20/14/3 
f 20/14/3 19/13/3 6/4/3 
f 18/12/3 17/11/3 21/15/4 
f 21/15/4 22/16/4 18/12/3 
f 19/13/3 20/14/3 23/17/4 
f 23/17/4 24/18/4 19/13/3 
f 22/16/4 21/15/4 10/5/4 
f 10/5/4 9/10/4 22/16/4 
f 21/15/4 24/18/4 13/3/4 
f 13/3/4 10/5/4 21/15/4 
f 24/18/4 23/17/4 15/2/4 
f 15/2/4 13/3/4 24/18/4 
s 16
f 8/9/5 7/1/5 25/14/5 
f 25/14/5 20/12/6 8/9/5 
f 20/12/6 25/14/5 26/17/6 
f 26/17/6 23/16/7 20/12/6 
f 23/16/7 26/17/6 16/2/7 
f 16/2/7 15/10/7 23/16/7 
s 32
f 7/9/8 5/6/8 27/11/8 
f 27/11/8 25/12/8 7/9/8 
f 5/6/8 3/4/8 28/13/8 
f 28/13/8 27/11/8 5/6/8 
f 3/4/8 2/1/8 29/14/8 
f 29/14/8 28/13/8 3/4/8 
f 25/12/8 27/11/8 30/15/8 
f 30/15/8 26/16/8 25/12/8 
f 28/13/8 29/14/8 31/17/8 
f 31/17/8 32/18/8 28/13/8 
f 26/16/8 30/15/8 14/5/8 
f 14/5/8 16/10/8 26/16/8 
f 30/15/8 32/18/8 11/3/8 
f 11/3/8 14/5/8 30/15/8 
f 32/18/8 31/17/8 12/2/8 
f 12/2/8 11/3/8 32/18/8 
s 64
f 2/9/9 1/1/9 18/14/9 
f 18/14/9 29/12/9 2/9/9 
f 29/12/9 18/14/9 22/17/9 
f 22/17/9 31/16/9 29/12/9 
f 31/16/9 22/17/9 9/2/9 
f 9/2/9 12/10/9 31/16/9 
# 56 faces

