# 3ds Max Wavefront OBJ Exporter v0.97b - (c)2007 guruware
# File Created: 26.11.2019 02:45:22

mtllib nut_01_obj.mtl

#
# object Box002
#

v  -23.1807 -23.0397 4.9810
v  -23.1807 -23.0397 -4.9810
v  -7.7269 -23.0397 -4.9810
v  -7.7269 -23.0397 4.9810
v  7.7269 -23.0397 -4.9810
v  7.7269 -23.0397 4.9810
v  23.1807 -23.0397 -4.9810
v  23.1807 -23.0397 4.9810
v  -23.1807 23.5944 4.9810
v  -7.7269 23.5944 4.9810
v  -7.7269 23.5944 -4.9810
v  -23.1807 23.5944 -4.9810
v  7.7269 23.5944 4.9810
v  7.7269 23.5944 -4.9810
v  23.1807 23.5944 4.9810
v  23.1807 23.5944 -4.9810
v  -5.1270 -5.3451 4.9810
v  -23.1807 -7.2607 4.9810
v  5.2228 -5.3451 4.9810
v  23.1807 -7.2607 4.9810
v  -5.1270 5.3651 4.9810
v  -23.1807 7.8798 4.9810
v  23.1807 7.8798 4.9810
v  5.2228 5.3651 4.9810
v  23.1807 -7.2607 -4.9810
v  23.1807 7.8798 -4.9810
v  5.2228 -5.3451 -4.9810
v  -5.1270 -5.3451 -4.9810
v  -23.1807 -7.2607 -4.9810
v  5.2228 5.3651 -4.9810
v  -23.1807 7.8798 -4.9810
v  -5.1270 5.3651 -4.9810
# 32 vertices

vn 0.0000 -1.0000 -0.0000
vn 0.0000 1.0000 -0.0000
vn 0.0000 -0.0000 1.0000
vn -0.0000 -0.0000 1.0000
vn 0.0000 0.0000 1.0000
vn 1.0000 0.0000 -0.0000
vn 0.0000 0.0000 -1.0000
vn -0.0000 0.0000 -1.0000
vn -1.0000 0.0000 -0.0000
# 9 vertex normals

vt 1.0000 0.0000 0.0000
vt 1.0000 1.0000 0.0000
vt 0.6667 1.0000 0.0000
vt 0.6667 0.0000 0.0000
vt 0.3333 1.0000 0.0000
vt 0.3333 0.0000 0.0000
vt -0.0000 1.0000 0.0000
vt -0.0000 0.0000 0.0000
vt 0.0000 0.0000 0.0000
vt 0.0000 1.0000 0.0000
vt 0.3333 0.3333 0.0000
vt 0.0000 0.3333 0.0000
vt 0.6667 0.3333 0.0000
vt 1.0000 0.3333 0.0000
vt 0.3333 0.6667 0.0000
vt 0.0000 0.6667 0.0000
vt 1.0000 0.6667 0.0000
vt 0.6667 0.6667 0.0000
# 18 texture coords

o Box002
g Box002
usemtl wire_184155229
s 2
f 1/1/1 2/2/1 3/3/1 
f 3/3/1 4/4/1 1/1/1 
f 4/4/1 3/3/1 5/5/1 
f 5/5/1 6/6/1 4/4/1 
f 6/6/1 5/5/1 7/7/1 
f 7/7/1 8/8/1 6/6/1 
s 4
f 9/9/2 10/6/2 11/5/2 
f 11/5/2 12/10/2 9/9/2 
f 10/6/2 13/4/2 14/3/2 
f 14/3/2 11/5/2 10/6/2 
f 13/4/2 15/1/2 16/2/2 
f 16/2/2 14/3/2 13/4/2 
s 8
f 1/9/3 4/6/3 17/11/3 
f 17/11/3 18/12/3 1/9/3 
f 4/6/3 6/4/4 19/13/4 
f 19/13/4 17/11/3 4/6/3 
f 6/4/4 8/1/3 20/14/4 
f 20/14/4 19/13/4 6/4/4 
f 18/12/3 17/11/3 21/15/5 
f 21/15/5 22/16/5 18/12/3 
f 19/13/4 20/14/4 23/17/5 
f 23/17/5 24/18/5 19/13/4 
f 22/16/5 21/15/5 10/5/5 
f 10/5/5 9/10/5 22/16/5 
f 21/15/5 24/18/5 13/3/5 
f 13/3/5 10/5/5 21/15/5 
f 24/18/5 23/17/5 15/2/5 
f 15/2/5 13/3/5 24/18/5 
s 16
f 8/9/6 7/1/6 25/14/6 
f 25/14/6 20/12/6 8/9/6 
f 20/12/6 25/14/6 26/17/6 
f 26/17/6 23/16/6 20/12/6 
f 23/16/6 26/17/6 16/2/6 
f 16/2/6 15/10/6 23/16/6 
s 32
f 7/9/7 5/6/7 27/11/7 
f 27/11/7 25/12/7 7/9/7 
f 5/6/7 3/4/8 28/13/8 
f 28/13/8 27/11/7 5/6/7 
f 3/4/8 2/1/7 29/14/8 
f 29/14/8 28/13/8 3/4/8 
f 25/12/7 27/11/7 30/15/7 
f 30/15/7 26/16/7 25/12/7 
f 28/13/8 29/14/8 31/17/7 
f 31/17/7 32/18/7 28/13/8 
f 26/16/7 30/15/7 14/5/7 
f 14/5/7 16/10/7 26/16/7 
f 30/15/7 32/18/7 11/3/7 
f 11/3/7 14/5/7 30/15/7 
f 32/18/7 31/17/7 12/2/7 
f 12/2/7 11/3/7 32/18/7 
s 64
f 2/9/9 1/1/9 18/14/9 
f 18/14/9 29/12/9 2/9/9 
f 29/12/9 18/14/9 22/17/9 
f 22/17/9 31/16/9 29/12/9 
f 31/16/9 22/17/9 9/2/9 
f 9/2/9 12/10/9 31/16/9 
# 56 faces

