# 3ds Max Wavefront OBJ Exporter v0.97b - (c)2007 guruware
# File Created: 26.11.2019 02:46:07

mtllib nut_02_obj.mtl

#
# object Box002
#

v  -27.1097 -20.2730 6.0333
v  -27.1097 -20.2730 -2.8060
v  -13.7195 -20.2730 -2.8060
v  -13.7195 -20.2730 6.0333
v  -0.3293 -20.2730 -2.8060
v  -0.3293 -20.2730 6.0333
v  13.0610 -20.2730 -2.8060
v  13.0610 -20.2730 6.0333
v  -27.1097 20.4157 6.0333
v  -13.7195 20.4157 6.0333
v  -13.7195 20.4157 -2.8060
v  -27.1097 20.4157 -2.8060
v  -0.3293 20.4157 6.0333
v  -0.3293 20.4157 -2.8060
v  13.0610 20.4157 6.0333
v  13.0610 20.4157 -2.8060
v  -9.2925 -4.6196 6.0333
v  -27.1097 -4.6196 6.0333
v  -4.2203 -4.6196 6.0333
v  13.0610 -4.6196 6.0333
v  -9.2925 4.5592 6.0333
v  -27.1097 4.5592 6.0333
v  13.0610 4.5592 6.0333
v  -4.2203 4.5592 6.0333
v  13.0610 -4.6196 -2.8060
v  13.0610 4.5592 -2.8060
v  -4.2203 -4.6196 -2.8060
v  -9.2925 -4.6196 -2.8060
v  -27.1097 -4.6196 -2.8060
v  -4.2203 4.5592 -2.8060
v  -27.1097 4.5592 -2.8060
v  -9.2925 4.5592 -2.8060
# 32 vertices

vn 0.0000 -1.0000 -0.0000
vn 0.0000 1.0000 -0.0000
vn 0.0000 0.0000 1.0000
vn 0.0000 -0.0000 1.0000
vn 1.0000 -0.0000 0.0000
vn 1.0000 -0.0000 -0.0000
vn 1.0000 0.0000 -0.0000
vn -0.0000 0.0000 -1.0000
vn 0.0000 0.0000 -1.0000
vn -1.0000 -0.0000 0.0000
vn -1.0000 -0.0000 -0.0000
vn -1.0000 0.0000 -0.0000
# 12 vertex normals

vt 1.0000 0.0000 0.0000
vt 1.0000 1.0000 0.0000
vt 0.6667 1.0000 0.0000
vt 0.6667 0.0000 0.0000
vt 0.3333 1.0000 0.0000
vt 0.3333 0.0000 0.0000
vt -0.0000 1.0000 0.0000
vt -0.0000 0.0000 0.0000
vt 0.0000 0.0000 0.0000
vt 0.0000 1.0000 0.0000
vt 0.3333 0.3333 0.0000
vt 0.0000 0.3333 0.0000
vt 0.6667 0.3333 0.0000
vt 1.0000 0.3333 0.0000
vt 0.3333 0.6667 0.0000
vt 0.0000 0.6667 0.0000
vt 1.0000 0.6667 0.0000
vt 0.6667 0.6667 0.0000
# 18 texture coords

o Box002
g Box002
usemtl wire_225143087
s 2
f 1/1/1 2/2/1 3/3/1 
f 3/3/1 4/4/1 1/1/1 
f 4/4/1 3/3/1 5/5/1 
f 5/5/1 6/6/1 4/4/1 
f 6/6/1 5/5/1 7/7/1 
f 7/7/1 8/8/1 6/6/1 
s 4
f 9/9/2 10/6/2 11/5/2 
f 11/5/2 12/10/2 9/9/2 
f 10/6/2 13/4/2 14/3/2 
f 14/3/2 11/5/2 10/6/2 
f 13/4/2 15/1/2 16/2/2 
f 16/2/2 14/3/2 13/4/2 
s 8
f 1/9/3 4/6/4 17/11/4 
f 17/11/4 18/12/4 1/9/3 
f 4/6/4 6/4/4 19/13/4 
f 19/13/4 17/11/4 4/6/4 
f 6/4/4 8/1/4 20/14/4 
f 20/14/4 19/13/4 6/4/4 
f 18/12/4 17/11/4 21/15/4 
f 21/15/4 22/16/4 18/12/4 
f 19/13/4 20/14/4 23/17/4 
f 23/17/4 24/18/4 19/13/4 
f 22/16/4 21/15/4 10/5/4 
f 10/5/4 9/10/4 22/16/4 
f 21/15/4 24/18/4 13/3/4 
f 13/3/4 10/5/4 21/15/4 
f 24/18/4 23/17/4 15/2/4 
f 15/2/4 13/3/4 24/18/4 
s 16
f 8/9/5 7/1/6 25/14/5 
f 25/14/5 20/12/5 8/9/5 
f 20/12/5 25/14/5 26/17/7 
f 26/17/7 23/16/7 20/12/5 
f 23/16/7 26/17/7 16/2/7 
f 16/2/7 15/10/7 23/16/7 
s 32
f 7/9/8 5/6/8 27/11/8 
f 27/11/8 25/12/8 7/9/8 
f 5/6/8 3/4/9 28/13/9 
f 28/13/9 27/11/8 5/6/8 
f 3/4/9 2/1/9 29/14/9 
f 29/14/9 28/13/9 3/4/9 
f 25/12/8 27/11/8 30/15/8 
f 30/15/8 26/16/9 25/12/8 
f 28/13/9 29/14/9 31/17/9 
f 31/17/9 32/18/9 28/13/9 
f 26/16/9 30/15/8 14/5/9 
f 14/5/9 16/10/9 26/16/9 
f 30/15/8 32/18/9 11/3/9 
f 11/3/9 14/5/9 30/15/8 
f 32/18/9 31/17/9 12/2/9 
f 12/2/9 11/3/9 32/18/9 
s 64
f 2/9/10 1/1/11 18/14/10 
f 18/14/10 29/12/10 2/9/10 
f 29/12/10 18/14/10 22/17/12 
f 22/17/12 31/16/12 29/12/10 
f 31/16/12 22/17/12 9/2/12 
f 9/2/12 12/10/12 31/16/12 
# 56 faces

